<svg xmlns="http://www.w3.org/2000/svg" width="50.886" height="59.225" viewBox="0 0 50.886 59.225">
  <g id="Groupe_4" data-name="Groupe 4" transform="translate(152.17 -34.384)">
    <g id="Groupe_19" data-name="Groupe 19" transform="translate(-152.17 34.384)">
      <path id="Tracé_21" data-name="Tracé 21" d="M-140.34,67.418a1.449,1.449,0,0,1-1.448-1.44,21.222,21.222,0,0,1,21.091-21.3h.11a21.219,21.219,0,0,1,21.193,21.09,1.446,1.446,0,0,1-1.44,1.453h-.007a1.448,1.448,0,0,1-1.448-1.44,18.3,18.3,0,0,0-18.395-18.208,18.3,18.3,0,0,0-18.208,18.395,1.448,1.448,0,0,1-1.44,1.455Z" transform="translate(150.28 -36.258)" fill="#4689f1"/>
      <path id="Tracé_22" data-name="Tracé 22" d="M-122.483,93.609A29.613,29.613,0,0,1-152.17,64.071a29.613,29.613,0,0,1,29.538-29.687h.006a1.086,1.086,0,0,1,1.089,1.083,1.086,1.086,0,0,1-1.083,1.089,27.44,27.44,0,0,0-27.3,27.58,27.441,27.441,0,0,0,27.58,27.3h0a1.086,1.086,0,0,1,1.089,1.083,1.086,1.086,0,0,1-1.083,1.089h-.152" transform="translate(152.17 -34.384)" fill="#4689f1"/>
      <path id="Tracé_23" data-name="Tracé 23" d="M-116.286,54.966h-.067a1.81,1.81,0,0,0-1.8,1.815,1.81,1.81,0,0,0,1.815,1.8h.056a9.161,9.161,0,0,1,9.184,9.139,9.161,9.161,0,0,1-9.139,9.183,1.81,1.81,0,0,0-1.805,1.814,1.81,1.81,0,0,0,1.814,1.805h.011a12.78,12.78,0,0,0,12.749-12.813,12.781,12.781,0,0,0-12.813-12.749" transform="translate(145.977 -38.131)" fill="#4689f1"/>
      <path id="Tracé_24" data-name="Tracé 24" d="M-119.334,72.852a1.81,1.81,0,0,0,1.81,1.81,1.81,1.81,0,0,0,1.809-1.81h0V66.7a1.81,1.81,0,0,0-1.809-1.81,1.81,1.81,0,0,0-1.81,1.81v.245h-2.536V62.594a1.81,1.81,0,0,0-1.809-1.81,1.81,1.81,0,0,0-1.81,1.81v6.155a1.81,1.81,0,0,0,1.808,1.81h4.346Z" transform="translate(147.312 -39.191)" fill="#4689f1"/>
    </g>
  </g>
</svg>
